name Walk1.mot
datacolumns 19
datarows 27
range 2.28200000 2.30800000
endheader

                time	   L_ground_force_vx	   L_ground_force_vy	   L_ground_force_vz	   L_ground_force_px	   L_ground_force_py	   L_ground_force_pz	   R_ground_force_vx	   R_ground_force_vy	   R_ground_force_vz	   R_ground_force_px	   R_ground_force_py	   R_ground_force_pz	   L_ground_torque_x	   L_ground_torque_y	   L_ground_torque_z	   R_ground_torque_x	   R_ground_torque_y	   R_ground_torque_z	
          2.28200000	          7.51578733	         25.71850802	         -1.59746264	          0.26610627	          0.00000000	          0.14032027	          0.00000000	          0.00000000	          0.00000000	         -0.00000000	          0.00000000	          0.00000000	          0.00000000	         -0.01890859	          0.00000000	          0.00000000	          0.00000000	          0.00000000	
          2.28300000	          6.32130639	         22.71447085	         -1.47803123	          0.25491201	          0.00000000	          0.13488337	          0.00000000	          0.00000000	          0.00000000	         -0.00000000	          0.00000000	          0.00000000	          0.00000000	         -0.02151637	          0.00000000	          0.00000000	          0.00000000	          0.00000000	
          2.28400000	          5.20414211	         19.88068890	         -1.36311632	          0.24372280	          0.00000000	          0.12940999	          0.00000000	          0.00000000	          0.00000000	         -0.00000000	          0.00000000	          0.00000000	          0.00000000	         -0.02383308	          0.00000000	          0.00000000	          0.00000000	          0.00000000	
          2.28500000	          4.16215041	         17.21299664	         -1.25279907	          0.23257113	          0.00000000	          0.12391777	          0.00000000	          0.00000000	          0.00000000	         -0.00000000	          0.00000000	          0.00000000	          0.00000000	         -0.02586772	          0.00000000	          0.00000000	          0.00000000	          0.00000000	
          2.28600000	          3.19298352	         14.70715515	         -1.14712122	          0.22149090	          0.00000000	          0.11842568	          0.00000000	          0.00000000	          0.00000000	         -0.00000000	          0.00000000	          0.00000000	          0.00000000	         -0.02763302	          0.00000000	          0.00000000	          0.00000000	          0.00000000	
          2.28700000	          2.29414789	         12.35880632	         -1.04609297	          0.21051610	          0.00000000	          0.11295326	          0.00000000	          0.00000000	          0.00000000	         -0.00000000	          0.00000000	          0.00000000	          0.00000000	         -0.02914401	          0.00000000	          0.00000000	          0.00000000	          0.00000000	
          2.28800000	          1.46306596	         10.16342283	         -0.94970162	          0.19967892	          0.00000000	          0.10751929	          0.00000000	          0.00000000	          0.00000000	         -0.00000000	          0.00000000	          0.00000000	          0.00000000	         -0.03041640	          0.00000000	          0.00000000	          0.00000000	          0.00000000	
          2.28900000	          0.69711749	          8.11629478	         -0.85791717	          0.18900863	          0.00000000	          0.10214106	          0.00000000	          0.00000000	          0.00000000	         -0.00000000	          0.00000000	          0.00000000	          0.00000000	         -0.03146567	          0.00000000	          0.00000000	          0.00000000	          0.00000000	
          2.29000000	         -0.00634110	          6.21255250	         -0.77069474	          0.17853136	          0.00000000	          0.09683414	          0.00000000	          0.00000000	          0.00000000	         -0.00000000	          0.00000000	          0.00000000	          0.00000000	         -0.03230682	          0.00000000	          0.00000000	          0.00000000	          0.00000000	
          2.29100000	         -0.64996474	          4.44719852	         -0.68797605	          0.16827027	          0.00000000	          0.09161252	          0.00000000	          0.00000000	          0.00000000	         -0.00000000	          0.00000000	          0.00000000	          0.00000000	         -0.03295438	          0.00000000	          0.00000000	          0.00000000	          0.00000000	
          2.29200000	         -1.23640876	          2.81513736	         -0.60969075	          0.15824577	          0.00000000	          0.08648869	          0.00000000	          0.00000000	          0.00000000	         -0.00000000	          0.00000000	          0.00000000	          0.00000000	         -0.03342235	          0.00000000	          0.00000000	          0.00000000	          0.00000000	
          2.29300000	         -1.76831876	          1.31120309	         -0.53575771	          0.14847563	          0.00000000	          0.08147368	          0.00000000	          0.00000000	          0.00000000	         -0.00000000	          0.00000000	          0.00000000	          0.00000000	         -0.03372424	          0.00000000	          0.00000000	          0.00000000	          0.00000000	
          2.29400000	         -2.24832149	         -0.06981516	         -0.46608626	          0.13897512	          0.00000000	          0.07657720	          0.00000000	          0.00000000	          0.00000000	         -0.00000000	          0.00000000	          0.00000000	          0.00000000	         -0.03387302	          0.00000000	          0.00000000	          0.00000000	          0.00000000	
          2.29500000	         -2.67901651	         -1.33314966	         -0.40057733	          0.12975724	          0.00000000	          0.07180767	          0.00000000	          0.00000000	          0.00000000	         -0.00000000	          0.00000000	          0.00000000	          0.00000000	         -0.03388115	          0.00000000	          0.00000000	          0.00000000	          0.00000000	
          2.29600000	         -3.06296867	         -2.48403255	         -0.33912456	          0.12083277	          0.00000000	          0.06717232	          0.00000000	         -0.00000000	          0.00000000	         -0.00000000	          0.00000000	          0.00000000	          0.00000000	         -0.03376057	          0.00000000	          0.00000000	          0.00000000	          0.00000000	
          2.29700000	         -3.40270136	         -3.52767599	         -0.28161529	          0.11221050	          0.00000000	          0.06267726	          0.00000000	         -0.00000000	          0.00000000	         -0.00000000	          0.00000000	          0.00000000	          0.00000000	         -0.03352266	          0.00000000	          0.00000000	          0.00000000	          0.00000000	
          2.29800000	         -3.70069055	         -4.46925426	         -0.22793154	          0.10389731	          0.00000000	          0.05832755	          0.00000000	         -0.00000000	          0.00000000	         -0.00000000	          0.00000000	          0.00000000	          0.00000000	         -0.03317831	          0.00000000	          0.00000000	          0.00000000	          0.00000000	
          2.29900000	         -3.95935941	         -5.31388735	         -0.17795090	          0.09589835	          0.00000000	          0.05412726	          0.00000000	         -0.00000000	          0.00000000	         -0.00000000	          0.00000000	          0.00000000	          0.00000000	         -0.03273786	          0.00000000	          0.00000000	          0.00000000	          0.00000000	
          2.30000000	         -4.18107367	         -6.06662627	         -0.13154739	          0.08821711	          0.00000000	          0.05007956	         -0.00000000	         -0.00000000	          0.00000000	         -0.00000000	          0.00000000	          0.00000000	          0.00000000	         -0.03221115	          0.00000000	          0.00000000	          0.00000000	          0.00000000	
          2.30100000	         -4.36813755	         -6.73243982	         -0.08859221	          0.08085561	          0.00000000	          0.04618678	         -0.00000000	         -0.00000000	          0.00000000	         -0.00000000	          0.00000000	          0.00000000	          0.00000000	         -0.03160751	          0.00000000	          0.00000000	          0.00000000	          0.00000000	
          2.30200000	         -4.52279031	         -7.31620281	         -0.04895449	          0.07381448	          0.00000000	          0.04245044	         -0.00000000	         -0.00000000	          0.00000000	         -0.00000000	          0.00000000	          0.00000000	          0.00000000	         -0.03093575	          0.00000000	          0.00000000	          0.00000000	          0.00000000	
          2.30300000	         -4.64720327	         -7.82268560	         -0.01250195	          0.06709309	          0.00000000	          0.03887138	         -0.00000000	         -0.00000000	          0.00000000	         -0.00000000	          0.00000000	          0.00000000	          0.00000000	         -0.03020421	          0.00000000	          0.00000000	          0.00000000	          0.00000000	
          2.30400000	         -4.74347743	         -8.25654501	          0.02089849	          0.06068965	          0.00000000	          0.03544973	         -0.00000000	         -0.00000000	          0.00000000	         -0.00000000	          0.00000000	          0.00000000	          0.00000000	         -0.02942074	          0.00000000	          0.00000000	          0.00000000	          0.00000000	
          2.30500000	         -4.81364145	         -8.62231633	          0.05138011	          0.05460132	          0.00000000	          0.03218506	         -0.00000000	         -0.00000000	          0.00000000	         -0.00000000	          0.00000000	          0.00000000	          0.00000000	         -0.02859270	          0.00000000	          0.00000000	          0.00000000	          0.00000000	
          2.30600000	         -4.85965021	         -8.92440652	          0.07907591	          0.04882433	          0.00000000	          0.02907634	         -0.00000000	         -0.00000000	         -0.00000000	         -0.00000000	          0.00000000	          0.00000000	          0.00000000	         -0.02772702	          0.00000000	          0.00000000	          0.00000000	          0.00000000	
          2.30700000	         -4.88338362	         -9.16708848	          0.10411808	          0.04335402	          0.00000000	          0.02612206	         -0.00000000	         -0.00000000	         -0.00000000	         -0.00000000	          0.00000000	          0.00000000	          0.00000000	         -0.02683017	          0.00000000	          0.00000000	          0.00000000	          0.00000000	
          2.30800000	         -4.88664595	         -9.35449632	          0.12663763	          0.03818500	          0.00000000	          0.02332026	         -0.00000000	         -0.00000000	         -0.00000000	         -0.00000000	          0.00000000	          0.00000000	          0.00000000	         -0.02590819	          0.00000000	          0.00000000	          0.00000000	          0.00000000	
